<svg xmlns="http://www.w3.org/2000/svg" xmlns:xlink="http://www.w3.org/1999/xlink" width="500" zoomAndPan="magnify" viewBox="0 0 375 225" height="300" preserveAspectRatio="xMidYMid meet" version="1.2"><defs><clipPath id="c1168c752c"><path d="M 32 0 L 218.695312 0 L 218.695312 225 L 32 225 Z M 32 0 "/></clipPath><clipPath id="5dbd796a1e"><path d="M 152.894531 -26.246094 L 218.292969 -0.886719 L 97.3125 311.515625 L 31.910156 286.152344 Z M 152.894531 -26.246094 "/></clipPath><clipPath id="58315d5de1"><path d="M 185.59375 -13.566406 L 218.292969 -0.886719 L 64.699219 298.597656 L 32 285.917969 Z M 185.59375 -13.566406 "/></clipPath><clipPath id="953b946919"><path d="M 27 0 L 214 0 L 214 225 L 27 225 Z M 27 0 "/></clipPath><clipPath id="cd49a96d10"><path d="M 147.984375 -26.246094 L 213.386719 -0.886719 L 92.40625 311.515625 L 27.003906 286.152344 Z M 147.984375 -26.246094 "/></clipPath><clipPath id="19176a42f2"><path d="M 180.6875 -13.566406 L 213.386719 -0.886719 L 59.792969 298.597656 L 27.089844 285.917969 Z M 180.6875 -13.566406 "/></clipPath><clipPath id="7d31d2fed7"><path d="M 79.054688 0 L 266 0 L 266 225 L 79.054688 225 Z M 79.054688 0 "/></clipPath><clipPath id="e1483eb451"><path d="M 200.21875 -26.246094 L 265.625 -0.886719 L 144.644531 311.515625 L 79.242188 286.152344 Z M 200.21875 -26.246094 "/></clipPath><clipPath id="38fc3a574b"><path d="M 232.925781 -13.566406 L 265.625 -0.886719 L 112.03125 298.597656 L 79.332031 285.917969 Z M 232.925781 -13.566406 "/></clipPath><clipPath id="40ca4d4e33"><path d="M 74 0 L 261 0 L 261 225 L 74 225 Z M 74 0 "/></clipPath><clipPath id="2d9f8724f7"><path d="M 195.316406 -26.246094 L 260.71875 -0.886719 L 139.734375 311.515625 L 74.332031 286.152344 Z M 195.316406 -26.246094 "/></clipPath><clipPath id="d1a3d67e8f"><path d="M 228.015625 -13.566406 L 260.71875 -0.886719 L 107.125 298.597656 L 74.421875 285.917969 Z M 228.015625 -13.566406 "/></clipPath><clipPath id="3a906432fb"><path d="M 0 0 L 179 0 L 179 225 L 0 225 Z M 0 0 "/></clipPath><clipPath id="8c8b06a3ec"><path d="M 112.910156 -38.320312 L 178.3125 -12.957031 L 57.332031 299.441406 L -8.070312 274.078125 Z M 112.910156 -38.320312 "/></clipPath><clipPath id="b96f6db309"><path d="M 145.613281 -25.640625 L 178.3125 -12.957031 L 24.722656 286.523438 L -7.976562 273.839844 Z M 145.613281 -25.640625 "/></clipPath><clipPath id="ca9b500878"><path d="M 0 0 L 173.925781 0 L 173.925781 225 L 0 225 Z M 0 0 "/></clipPath><clipPath id="98ac2138f1"><path d="M 108.003906 -38.320312 L 173.410156 -12.957031 L 52.425781 299.441406 L -12.980469 274.078125 Z M 108.003906 -38.320312 "/></clipPath><clipPath id="397b4934b4"><path d="M 140.703125 -25.640625 L 173.410156 -12.957031 L 19.816406 286.523438 L -12.886719 273.839844 Z M 140.703125 -25.640625 "/></clipPath><clipPath id="7699f68dd8"><path d="M 0 201.375 L 178.316406 201.375 L 178.316406 225 L 0 225 Z M 0 201.375 "/></clipPath><clipPath id="b22d4a87b1"><path d="M 82.71875 0 L 273.917969 0 L 273.917969 17.792969 L 82.71875 17.792969 Z M 82.71875 0 "/></clipPath><clipPath id="27ace16cb1"><path d="M 4.324219 78.09375 L 358 78.09375 L 358 156.8125 L 4.324219 156.8125 Z M 4.324219 78.09375 "/></clipPath><clipPath id="9571d68bfc"><path d="M 33.90625 78.09375 L 328.226562 78.09375 C 336.070312 78.09375 343.59375 81.214844 349.140625 86.765625 C 354.691406 92.316406 357.804688 99.84375 357.804688 107.695312 L 357.804688 127.210938 C 357.804688 135.0625 354.691406 142.589844 349.140625 148.144531 C 343.59375 153.695312 336.070312 156.8125 328.226562 156.8125 L 33.90625 156.8125 C 26.0625 156.8125 18.539062 153.695312 12.992188 148.144531 C 7.445312 142.589844 4.324219 135.0625 4.324219 127.210938 L 4.324219 107.695312 C 4.324219 99.84375 7.445312 92.316406 12.992188 86.765625 C 18.539062 81.214844 26.0625 78.09375 33.90625 78.09375 Z M 33.90625 78.09375 "/></clipPath></defs><g id="65325fde57"><rect x="0" width="375" y="0" height="225" style="fill:#ffffff;fill-opacity:1;stroke:none;"/><rect x="0" width="375" y="0" height="225" style="fill:#ffffff;fill-opacity:1;stroke:none;"/><g clip-rule="nonzero" clip-path="url(#c1168c752c)"><g clip-rule="nonzero" clip-path="url(#5dbd796a1e)"><g clip-rule="nonzero" clip-path="url(#58315d5de1)"><path style=" stroke:none;fill-rule:nonzero;fill:#b40e0e;fill-opacity:1;" d="M 152.894531 -26.246094 L 218.292969 -0.886719 L 97.410156 311.257812 L 32.007812 285.898438 Z M 152.894531 -26.246094 "/></g></g></g><g clip-rule="nonzero" clip-path="url(#953b946919)"><g clip-rule="nonzero" clip-path="url(#cd49a96d10)"><g clip-rule="nonzero" clip-path="url(#19176a42f2)"><path style=" stroke:none;fill-rule:nonzero;fill:#100f0d;fill-opacity:1;" d="M 147.984375 -26.246094 L 213.386719 -0.886719 L 92.503906 311.257812 L 27.097656 285.898438 Z M 147.984375 -26.246094 "/></g></g></g><g clip-rule="nonzero" clip-path="url(#7d31d2fed7)"><g clip-rule="nonzero" clip-path="url(#e1483eb451)"><g clip-rule="nonzero" clip-path="url(#38fc3a574b)"><path style=" stroke:none;fill-rule:nonzero;fill:#b40e0e;fill-opacity:1;" d="M 200.21875 -26.246094 L 265.625 -0.886719 L 144.738281 311.257812 L 79.335938 285.898438 Z M 200.21875 -26.246094 "/></g></g></g><g clip-rule="nonzero" clip-path="url(#40ca4d4e33)"><g clip-rule="nonzero" clip-path="url(#2d9f8724f7)"><g clip-rule="nonzero" clip-path="url(#d1a3d67e8f)"><path style=" stroke:none;fill-rule:nonzero;fill:#100f0d;fill-opacity:1;" d="M 195.316406 -26.246094 L 260.71875 -0.886719 L 139.835938 311.257812 L 74.429688 285.898438 Z M 195.316406 -26.246094 "/></g></g></g><g clip-rule="nonzero" clip-path="url(#3a906432fb)"><g clip-rule="nonzero" clip-path="url(#8c8b06a3ec)"><g clip-rule="nonzero" clip-path="url(#b96f6db309)"><path style=" stroke:none;fill-rule:nonzero;fill:#b40e0e;fill-opacity:1;" d="M 112.910156 -38.320312 L 178.3125 -12.957031 L 57.429688 299.183594 L -7.972656 273.824219 Z M 112.910156 -38.320312 "/></g></g></g><g clip-rule="nonzero" clip-path="url(#ca9b500878)"><g clip-rule="nonzero" clip-path="url(#98ac2138f1)"><g clip-rule="nonzero" clip-path="url(#397b4934b4)"><path style=" stroke:none;fill-rule:nonzero;fill:#100f0d;fill-opacity:1;" d="M 108.003906 -38.320312 L 173.410156 -12.957031 L 52.523438 299.183594 L -12.878906 273.824219 Z M 108.003906 -38.320312 "/></g></g></g><g clip-rule="nonzero" clip-path="url(#7699f68dd8)"><path style=" stroke:none;fill-rule:nonzero;fill:#ffffff;fill-opacity:1;" d="M -12.882812 201.375 L 178.445312 201.375 L 178.445312 299.203125 L -12.882812 299.203125 Z M -12.882812 201.375 "/></g><g clip-rule="nonzero" clip-path="url(#b22d4a87b1)"><path style=" stroke:none;fill-rule:nonzero;fill:#ffffff;fill-opacity:1;" d="M 82.71875 -26.246094 L 273.890625 -26.246094 L 273.890625 17.792969 L 82.71875 17.792969 Z M 82.71875 -26.246094 "/></g><g clip-rule="nonzero" clip-path="url(#27ace16cb1)"><g clip-rule="nonzero" clip-path="url(#9571d68bfc)"><path style=" stroke:none;fill-rule:nonzero;fill:#b40e0e;fill-opacity:1;" d="M 4.324219 78.09375 L 357.710938 78.09375 L 357.710938 156.8125 L 4.324219 156.8125 Z M 4.324219 78.09375 "/></g></g><path style=" stroke:none;fill-rule:nonzero;fill:#ffffff;fill-opacity:1;" d="M 53.6875 99.152344 L 53.6875 103.304688 L 41.230469 103.304688 L 41.230469 136.851562 L 36.765625 136.851562 L 36.765625 103.304688 L 24.308594 103.304688 L 24.308594 99.152344 Z M 53.6875 99.152344 "/><path style=" stroke:none;fill-rule:nonzero;fill:#ffffff;fill-opacity:1;" d="M 69.21875 99.152344 C 74.152344 99.152344 77.773438 99.96875 80.097656 101.601562 C 82.417969 103.238281 83.578125 105.867188 83.578125 109.488281 C 83.578125 112.144531 82.785156 114.332031 81.210938 116.054688 C 79.632812 117.777344 77.285156 118.917969 74.167969 119.488281 L 84.859375 136.851562 L 79.378906 136.851562 L 69.171875 119.917969 L 63.425781 119.917969 L 63.425781 136.851562 L 58.945312 136.851562 L 58.945312 99.152344 Z M 68.738281 115.769531 C 72.242188 115.769531 74.800781 115.28125 76.398438 114.304688 C 78 113.328125 78.796875 111.738281 78.796875 109.535156 C 78.796875 107.402344 78.074219 105.832031 76.632812 104.820312 C 75.199219 103.8125 72.976562 103.304688 69.96875 103.304688 L 63.425781 103.304688 L 63.425781 115.769531 Z M 68.738281 115.769531 "/><path style=" stroke:none;fill-rule:nonzero;fill:#ffffff;fill-opacity:1;" d="M 107.890625 99.152344 L 123.914062 136.851562 L 118.699219 136.851562 L 114.867188 127.585938 L 96.03125 127.585938 L 92.148438 136.851562 L 87.085938 136.851562 L 103.691406 99.152344 Z M 105.609375 104.902344 L 97.78125 123.4375 L 113.171875 123.4375 L 105.707031 104.902344 Z M 105.609375 104.902344 "/><path style=" stroke:none;fill-rule:nonzero;fill:#ffffff;fill-opacity:1;" d="M 134.550781 99.152344 L 156.371094 130.46875 L 156.472656 130.46875 L 156.472656 99.152344 L 160.953125 99.152344 L 160.953125 136.851562 L 155.304688 136.851562 L 133.484375 105.535156 L 133.386719 105.535156 L 133.386719 136.851562 L 128.90625 136.851562 L 128.90625 99.152344 Z M 134.550781 99.152344 "/><path style=" stroke:none;fill-rule:nonzero;fill:#ffffff;fill-opacity:1;" d="M 181.324219 98.1875 C 185.894531 98.1875 189.40625 99.664062 191.851562 102.621094 L 188.1875 105.804688 C 186.761719 103.570312 184.476562 102.417969 181.324219 102.351562 C 178.933594 102.351562 176.996094 102.917969 175.511719 104.054688 C 174.019531 105.1875 173.277344 106.730469 173.277344 108.6875 C 173.277344 110.386719 173.84375 111.738281 174.976562 112.738281 C 176.117188 113.726562 178.25 114.699219 181.375 115.652344 C 185.414062 116.832031 188.273438 118.265625 189.953125 119.953125 C 191.636719 121.632812 192.484375 123.910156 192.484375 126.785156 C 192.484375 130.121094 191.238281 132.78125 188.753906 134.769531 C 186.273438 136.761719 183.105469 137.773438 179.242188 137.820312 C 176.652344 137.820312 174.34375 137.355469 172.3125 136.4375 C 170.289062 135.503906 168.730469 134.21875 167.632812 132.585938 L 171.464844 129.453125 C 172.285156 130.800781 173.421875 131.835938 174.878906 132.570312 C 176.332031 133.292969 177.875 133.652344 179.507812 133.652344 C 181.738281 133.652344 183.660156 133.027344 185.269531 131.769531 C 186.890625 130.503906 187.703125 128.949219 187.703125 127.101562 C 187.703125 125.4375 187.226562 124.128906 186.289062 123.167969 C 185.355469 122.214844 183.804688 121.398438 181.640625 120.71875 L 177.328125 119.285156 C 174.09375 118.1875 171.8125 116.8125 170.480469 115.152344 C 169.15625 113.5 168.5 111.464844 168.5 109.054688 C 168.5 105.867188 169.683594 103.269531 172.0625 101.269531 C 174.4375 99.261719 177.527344 98.230469 181.324219 98.1875 Z M 181.324219 98.1875 "/><path style=" stroke:none;fill-rule:nonzero;fill:#ffffff;fill-opacity:1;" d="M 204.359375 99.152344 L 204.359375 132.703125 L 221.597656 132.703125 L 221.597656 136.851562 L 199.878906 136.851562 L 199.878906 99.152344 Z M 204.359375 99.152344 "/><path style=" stroke:none;fill-rule:nonzero;fill:#ffffff;fill-opacity:1;" d="M 226.480469 99.152344 L 230.960938 99.152344 L 230.960938 136.851562 L 226.480469 136.851562 Z M 226.480469 99.152344 "/><path style=" stroke:none;fill-rule:nonzero;fill:#ffffff;fill-opacity:1;" d="M 245.957031 99.152344 L 267.777344 130.46875 L 267.878906 130.46875 L 267.878906 99.152344 L 272.359375 99.152344 L 272.359375 136.851562 L 266.710938 136.851562 L 244.894531 105.535156 L 244.792969 105.535156 L 244.792969 136.851562 L 240.3125 136.851562 L 240.3125 99.152344 Z M 245.957031 99.152344 "/><path style=" stroke:none;fill-rule:nonzero;fill:#ffffff;fill-opacity:1;" d="M 305.390625 99.152344 L 305.390625 103.304688 L 286.183594 103.304688 L 286.183594 115.121094 L 304.105469 115.121094 L 304.105469 119.285156 L 286.183594 119.285156 L 286.183594 132.703125 L 306.339844 132.703125 L 306.339844 136.851562 L 281.703125 136.851562 L 281.703125 99.152344 Z M 305.390625 99.152344 "/><path style=" stroke:none;fill-rule:nonzero;fill:#ffffff;fill-opacity:1;" d="M 323.53125 99.152344 C 328.460938 99.152344 332.082031 99.96875 334.40625 101.601562 C 336.726562 103.238281 337.886719 105.867188 337.886719 109.488281 C 337.886719 112.144531 337.097656 114.332031 335.523438 116.054688 C 333.945312 117.777344 331.597656 118.917969 328.476562 119.488281 L 339.171875 136.851562 L 333.691406 136.851562 L 323.480469 119.917969 L 317.734375 119.917969 L 317.734375 136.851562 L 313.253906 136.851562 L 313.253906 99.152344 Z M 323.046875 115.769531 C 326.554688 115.769531 329.109375 115.28125 330.710938 114.304688 C 332.308594 113.328125 333.109375 111.738281 333.109375 109.535156 C 333.109375 107.402344 332.382812 105.832031 330.941406 104.820312 C 329.511719 103.8125 327.285156 103.304688 324.28125 103.304688 L 317.734375 103.304688 L 317.734375 115.769531 Z M 323.046875 115.769531 "/><path style=" stroke:none;fill-rule:nonzero;fill:#000000;fill-opacity:1;" d="M 199.183594 169.046875 C 202.949219 169.046875 205.949219 170.308594 208.195312 172.832031 L 203.898438 177.128906 C 202.339844 175.476562 200.769531 174.648438 199.183594 174.648438 C 196.972656 174.648438 195.203125 175.378906 193.871094 176.847656 C 192.539062 178.3125 191.871094 180.074219 191.871094 182.113281 C 191.871094 184.328125 192.570312 186.121094 193.96875 187.496094 C 195.371094 188.875 197.105469 189.5625 199.183594 189.5625 C 201.183594 189.5625 202.785156 188.789062 203.996094 187.230469 L 208.144531 191.699219 C 207.179688 192.664062 205.855469 193.488281 204.179688 194.164062 C 202.503906 194.832031 200.835938 195.164062 199.183594 195.164062 C 195.375 195.164062 192.164062 193.960938 189.558594 191.546875 C 186.957031 189.125 185.660156 185.980469 185.660156 182.113281 C 185.660156 178.347656 186.933594 175.230469 189.488281 172.765625 C 192.042969 170.289062 195.273438 169.046875 199.183594 169.046875 Z M 199.183594 169.046875 "/><path style=" stroke:none;fill-rule:nonzero;fill:#000000;fill-opacity:1;" d="M 225.546875 169.046875 C 226.054688 169.046875 226.796875 169.171875 227.761719 169.414062 L 227.761719 175.414062 C 226.695312 175.105469 225.695312 174.949219 224.761719 174.949219 C 222.71875 174.949219 221.089844 175.554688 219.882812 176.765625 C 218.683594 177.976562 218.085938 179.582031 218.085938 181.582031 L 218.085938 194.546875 L 211.855469 194.546875 L 211.855469 169.664062 L 218.085938 169.664062 L 218.085938 173.613281 L 218.183594 173.613281 C 218.871094 172.160156 219.855469 171.039062 221.132812 170.246094 C 222.40625 169.449219 223.878906 169.046875 225.546875 169.046875 Z M 225.546875 169.046875 "/><path style=" stroke:none;fill-rule:nonzero;fill:#000000;fill-opacity:1;" d="M 238.230469 169.664062 L 238.230469 182.515625 C 238.230469 185.003906 238.605469 186.804688 239.363281 187.914062 C 240.128906 189.015625 241.265625 189.5625 242.777344 189.5625 C 244.644531 189.5625 246.058594 188.996094 247.023438 187.863281 C 247.992188 186.722656 248.472656 185.179688 248.472656 183.246094 L 248.472656 169.664062 L 254.703125 169.664062 L 254.703125 194.546875 L 248.789062 194.546875 L 248.789062 190.5625 L 248.691406 190.5625 C 247.234375 193.628906 244.699219 195.164062 241.078125 195.164062 C 238.28125 195.164062 236.066406 194.332031 234.433594 192.664062 C 232.808594 190.988281 232 188.625 232 185.582031 L 232 169.664062 Z M 238.230469 169.664062 "/><path style=" stroke:none;fill-rule:nonzero;fill:#000000;fill-opacity:1;" d="M 264.894531 157.480469 C 266.035156 157.480469 266.996094 157.839844 267.777344 158.546875 C 268.550781 159.261719 268.941406 160.148438 268.941406 161.214844 C 268.941406 162.328125 268.542969 163.226562 267.742188 163.914062 C 266.953125 164.605469 266 164.949219 264.894531 164.949219 C 263.796875 164.949219 262.863281 164.578125 262.097656 163.832031 C 261.339844 163.089844 260.964844 162.214844 260.964844 161.214844 C 260.964844 160.214844 261.339844 159.34375 262.097656 158.597656 C 262.863281 157.855469 263.796875 157.480469 264.894531 157.480469 Z M 268.058594 169.664062 L 268.058594 194.546875 L 261.847656 194.546875 L 261.847656 169.664062 Z M 268.058594 169.664062 "/><path style=" stroke:none;fill-rule:nonzero;fill:#000000;fill-opacity:1;" d="M 283.707031 169.046875 C 287.777344 169.046875 290.742188 170.308594 292.601562 172.832031 L 288.46875 176.5625 C 287.226562 174.863281 285.597656 174.015625 283.589844 174.015625 C 282.589844 174.015625 281.734375 174.261719 281.023438 174.746094 C 280.324219 175.238281 279.976562 175.875 279.976562 176.664062 C 279.976562 177.875 281.195312 178.742188 283.640625 179.265625 L 285.871094 179.78125 C 288.601562 180.371094 290.535156 181.277344 291.667969 182.496094 C 292.808594 183.722656 293.382812 185.28125 293.382812 187.179688 C 293.382812 189.605469 292.417969 191.542969 290.484375 192.996094 C 288.554688 194.441406 285.925781 195.164062 282.605469 195.164062 C 278.429688 195.164062 275.21875 193.890625 272.980469 191.332031 L 277.128906 187.449219 C 278.191406 188.625 279.175781 189.429688 280.074219 189.863281 C 280.976562 190.289062 281.957031 190.496094 283.023438 190.496094 C 284.164062 190.496094 285.144531 190.242188 285.953125 189.730469 C 286.761719 189.210938 287.171875 188.515625 287.171875 187.648438 C 287.171875 186.238281 285.890625 185.238281 283.339844 184.648438 C 280.015625 183.894531 277.945312 183.296875 277.109375 182.863281 C 276.285156 182.429688 275.628906 181.914062 275.128906 181.3125 C 274.628906 180.707031 274.269531 180.042969 274.0625 179.332031 C 273.851562 178.621094 273.746094 177.871094 273.746094 177.082031 C 273.746094 174.625 274.683594 172.675781 276.5625 171.230469 C 278.449219 169.777344 280.828125 169.046875 283.707031 169.046875 Z M 283.707031 169.046875 "/><path style=" stroke:none;fill-rule:nonzero;fill:#000000;fill-opacity:1;" d="M 310.484375 169.046875 C 314.199219 169.046875 317.070312 170.292969 319.09375 172.78125 C 321.113281 175.273438 322.125 178.515625 322.125 182.515625 L 322.125 184.28125 L 303.171875 184.28125 C 303.378906 186.082031 304.09375 187.523438 305.320312 188.597656 C 306.550781 189.664062 308.058594 190.199219 309.847656 190.199219 C 312.480469 190.199219 314.703125 189.078125 316.527344 186.832031 L 320.992188 190.199219 C 318.292969 193.511719 314.789062 195.164062 310.484375 195.164062 C 306.671875 195.164062 303.460938 193.960938 300.855469 191.546875 C 298.257812 189.125 296.957031 185.980469 296.957031 182.113281 C 296.957031 178.238281 298.257812 175.09375 300.855469 172.679688 C 303.460938 170.261719 306.671875 169.046875 310.484375 169.046875 Z M 315.914062 179.613281 C 315.878906 177.648438 315.269531 176.175781 314.097656 175.199219 C 312.929688 174.210938 311.414062 173.714844 309.550781 173.714844 C 307.683594 173.714844 306.210938 174.261719 305.136719 175.347656 C 304.070312 176.4375 303.410156 177.859375 303.171875 179.613281 Z M 315.914062 179.613281 "/><path style=" stroke:none;fill-rule:nonzero;fill:#000000;fill-opacity:1;" d="M 341.609375 169.046875 C 342.117188 169.046875 342.859375 169.171875 343.824219 169.414062 L 343.824219 175.414062 C 342.757812 175.105469 341.757812 174.949219 340.828125 174.949219 C 338.78125 174.949219 337.152344 175.554688 335.945312 176.765625 C 334.746094 177.976562 334.148438 179.582031 334.148438 181.582031 L 334.148438 194.546875 L 327.917969 194.546875 L 327.917969 169.664062 L 334.148438 169.664062 L 334.148438 173.613281 L 334.246094 173.613281 C 334.933594 172.160156 335.917969 171.039062 337.195312 170.246094 C 338.46875 169.449219 339.945312 169.046875 341.609375 169.046875 Z M 341.609375 169.046875 "/></g></svg>